<?xml version="1.0" standalone="no"?>
<!DOCTYPE svg PUBLIC "-//W3C//DTD SVG 20010904//EN"
 "http://www.w3.org/TR/2001/REC-SVG-20010904/DTD/svg10.dtd">
<svg version="1.0" xmlns="http://www.w3.org/2000/svg"
 width="800.000000pt" height="800.000000pt" viewBox="0 0 800.000000 800.000000"
 preserveAspectRatio="xMidYMid meet">
<metadata>
Created by potrace 1.14, written by Peter Selinger 2001-2017
</metadata>
<g transform="translate(0.000000,800.000000) scale(0.100000,-0.100000)"
fill="#000000" stroke="none">
<path d="M555 7697 c-4 -13 -8 -37 -9 -53 -3 -27 -7 -50 -22 -129 -3 -16 -6
-37 -6 -45 0 -8 -6 -49 -14 -90 -16 -90 -23 -135 -29 -175 -4 -31 -22 -140
-29 -185 -3 -14 -5 -25 -6 -25 -1 0 -3 -13 -4 -30 -2 -16 -8 -57 -14 -90 -7
-33 -14 -80 -17 -105 -3 -25 -7 -52 -10 -60 -2 -8 -6 -33 -9 -55 -4 -22 -8
-51 -11 -65 -3 -14 -7 -41 -10 -60 -2 -19 -7 -46 -9 -60 -5 -24 -13 -74 -21
-135 -2 -16 -7 -41 -10 -55 -3 -14 -8 -41 -10 -60 -2 -19 -7 -46 -10 -60 -4
-22 -13 -80 -21 -135 -1 -11 -3 -20 -4 -20 -1 0 -3 -9 -4 -20 -6 -40 -16 -111
-21 -135 -14 -79 -47 -288 -50 -314 -2 -17 -4 -31 -5 -31 -2 0 -7 -26 -14 -77
-3 -24 -11 -69 -17 -101 -5 -32 -12 -72 -14 -88 -2 -17 -6 -42 -9 -57 -3 -15
-8 -47 -12 -72 -3 -25 -7 -54 -9 -65 -3 -18 -28 -167 -39 -235 -3 -14 -7 -43
-11 -65 -3 -22 -10 -69 -16 -105 -6 -36 -13 -74 -14 -85 -13 -81 -23 -141 -29
-170 -2 -11 -7 -39 -11 -62 l-6 -41 88 -1 c48 -1 95 -1 103 -2 8 0 53 0 100 1
47 1 90 1 95 0 6 -1 12 -2 15 -1 3 1 63 1 135 1 263 -1 238 -9 250 80 2 19 6
44 9 55 2 11 7 40 10 65 3 25 8 54 10 65 3 18 10 59 22 138 9 57 13 85 29 182
9 55 18 111 20 125 19 136 25 173 30 190 2 8 7 38 10 65 10 81 14 108 20 135
3 14 7 42 10 64 3 21 8 52 11 70 7 36 9 53 19 121 3 28 8 57 10 65 2 8 7 38
10 65 4 28 8 57 10 65 5 18 11 57 20 120 3 25 17 113 30 195 13 83 26 167 29
188 3 20 9 54 12 75 4 20 8 46 10 57 1 11 3 22 4 25 1 3 2 13 1 23 -3 25 18
21 28 -5 5 -13 40 -86 77 -163 37 -77 68 -142 69 -145 1 -3 25 -54 54 -115 30
-60 77 -159 106 -220 62 -131 134 -280 327 -685 33 -69 81 -168 106 -220 25
-52 45 -98 44 -102 -1 -5 2 -8 8 -8 5 0 10 -4 10 -9 0 -9 29 -71 164 -356 108
-225 92 -205 154 -205 l53 0 90 187 c125 258 149 311 149 323 0 5 5 10 10 10
6 0 10 5 10 11 0 6 21 55 47 108 26 53 48 98 48 101 1 3 22 48 47 100 25 52
74 154 108 225 34 72 87 181 117 244 95 195 166 346 167 351 1 3 23 50 50 105
26 55 63 132 82 170 19 39 34 75 34 82 0 6 5 13 11 15 5 2 11 10 13 18 5 26
97 212 103 207 2 -3 6 -16 7 -29 5 -42 18 -133 22 -153 9 -43 13 -72 18 -110
3 -22 8 -49 10 -60 2 -11 7 -40 10 -65 3 -25 8 -54 10 -65 2 -11 7 -42 10 -70
11 -76 17 -115 22 -139 2 -11 7 -37 10 -56 2 -19 7 -46 9 -60 3 -14 7 -45 10
-70 5 -43 9 -67 20 -120 3 -14 7 -43 10 -65 2 -22 7 -51 9 -65 5 -22 11 -62
20 -125 2 -11 7 -40 11 -65 4 -25 9 -58 11 -75 1 -16 3 -30 4 -30 2 0 9 -36
14 -85 3 -25 8 -56 11 -70 2 -13 7 -42 10 -65 9 -60 16 -106 20 -124 1 -9 8
-52 15 -96 6 -44 13 -91 16 -105 2 -14 7 -41 10 -60 3 -19 11 -73 19 -118 8
-46 13 -89 12 -95 -1 -8 20 -12 65 -13 37 -1 73 -4 81 -7 8 -3 17 -3 20 -1 4
4 157 6 267 3 8 0 53 0 100 1 47 1 90 1 95 0 6 -1 15 -1 20 0 6 1 36 1 68 0
l59 -1 -6 48 c-3 26 -8 59 -11 73 -3 14 -7 43 -10 65 -3 22 -7 51 -10 65 -2
14 -7 39 -10 55 -3 17 -7 39 -9 50 -2 11 -7 45 -12 75 -4 30 -8 57 -9 60 -1 5
-13 83 -20 135 -2 17 -7 41 -10 55 -3 14 -7 43 -10 65 -3 22 -16 105 -30 185
-13 80 -27 163 -30 185 -4 22 -8 51 -11 65 -2 14 -7 42 -10 63 -3 21 -7 44 -8
50 -2 7 -6 35 -10 62 -4 28 -10 61 -12 75 -2 14 -7 43 -10 65 -3 22 -7 50 -10
63 -2 12 -6 32 -8 45 -9 43 -28 172 -31 202 -2 17 -4 30 -5 30 -1 0 -4 13 -16
90 -13 86 -16 103 -30 190 -16 96 -23 141 -29 190 -2 17 -4 30 -5 30 -3 0 -14
70 -26 158 -2 15 -6 39 -10 55 -3 15 -7 43 -9 62 -2 19 -5 36 -6 38 -3 4 -5
15 -13 77 -4 32 -10 68 -13 80 -2 11 -6 34 -8 50 -2 17 -6 44 -10 60 -3 17 -8
46 -11 65 -2 19 -7 46 -9 60 -3 14 -10 54 -15 90 -5 36 -12 74 -14 85 -2 11
-7 42 -10 68 -4 26 -11 71 -16 99 -6 28 -10 52 -10 54 0 2 -171 4 -380 4
l-381 0 -54 -115 c-30 -64 -55 -117 -55 -120 0 -2 -27 -60 -60 -130 -33 -70
-60 -128 -60 -130 0 -2 -24 -54 -54 -117 -91 -193 -109 -233 -112 -243 -1 -5
-25 -59 -54 -120 -60 -128 -86 -183 -130 -280 -18 -38 -43 -91 -55 -117 -13
-25 -21 -49 -18 -52 4 -3 1 -6 -5 -6 -7 0 -12 -7 -12 -15 0 -8 -9 -30 -20 -50
-11 -19 -16 -35 -12 -35 4 0 2 -4 -4 -8 -5 -4 -21 -32 -33 -62 -13 -30 -41
-91 -61 -135 -112 -236 -128 -272 -134 -292 -11 -35 -23 -28 -47 25 -12 26
-41 89 -65 140 -24 52 -44 95 -44 98 0 2 -18 41 -39 86 -21 46 -51 110 -66
143 -15 33 -39 85 -53 115 -15 30 -25 58 -24 63 1 4 -2 7 -6 7 -4 0 -14 17
-21 37 -8 20 -35 82 -61 137 -40 84 -258 559 -347 756 -14 30 -39 84 -56 120
-17 36 -54 117 -82 180 l-52 115 -381 3 -382 2 -5 -23z"/>
<path d="M5108 7708 c-2 -7 -3 -780 -3 -1717 1 -1686 1 -1704 20 -1708 24 -5
17 -5 125 -3 47 1 90 1 95 0 6 -1 12 -2 15 -1 3 1 64 1 135 1 72 0 148 0 170
1 22 0 76 2 120 2 l79 2 1 1128 c0 1043 -1 1130 -17 1160 -9 18 -23 43 -30 57
-7 14 -15 27 -18 30 -3 3 -22 39 -43 80 -21 41 -47 90 -57 107 -11 18 -34 61
-51 95 -18 35 -41 75 -51 91 -11 15 -16 27 -12 27 3 0 2 6 -4 13 -5 6 -21 32
-35 57 -62 114 -87 161 -127 235 -24 44 -59 109 -78 145 -20 36 -53 97 -73
135 l-38 70 -59 3 c-42 2 -61 -1 -64 -10z"/>
<path d="M2976 3703 c-3 -3 -22 -6 -43 -8 -39 -3 -99 -11 -143 -20 -14 -3 -38
-8 -54 -11 -16 -2 -32 -7 -36 -9 -4 -2 -22 -7 -40 -10 -19 -3 -39 -9 -45 -13
-5 -4 -28 -14 -50 -21 -64 -21 -165 -70 -212 -102 -24 -16 -46 -29 -48 -29 -7
0 -43 -30 -103 -85 -52 -48 -121 -133 -150 -184 -45 -79 -52 -93 -52 -106 0
-8 -4 -15 -9 -15 -5 0 -12 -15 -16 -32 -4 -18 -9 -37 -11 -43 -25 -72 -37
-156 -37 -265 0 -147 8 -222 35 -309 19 -61 66 -170 78 -181 3 -3 20 -27 39
-53 18 -26 56 -69 84 -95 27 -26 55 -52 61 -57 15 -14 173 -115 180 -115 3 0
29 -11 58 -24 48 -22 143 -57 273 -101 65 -21 174 -51 220 -60 11 -3 40 -9 65
-16 25 -6 56 -13 70 -15 14 -3 70 -16 125 -30 55 -14 109 -27 120 -30 59 -12
168 -50 222 -76 146 -72 213 -154 215 -266 1 -58 -28 -172 -43 -172 -5 0 -9
-6 -9 -13 0 -28 -85 -98 -174 -141 -112 -55 -200 -75 -317 -73 -49 1 -89 1
-89 -1 0 -3 50 -97 87 -162 11 -19 35 -64 54 -100 18 -36 38 -68 44 -72 5 -4
6 -8 1 -8 -4 0 -1 -11 7 -24 16 -25 50 -85 117 -211 30 -55 43 -70 61 -71 13
0 28 2 34 5 5 3 22 6 37 7 38 3 217 50 263 70 22 9 51 21 65 27 14 6 27 11 30
12 16 4 104 54 163 92 133 85 233 194 311 336 39 71 91 218 101 284 3 21 8 50
11 63 6 30 6 256 0 285 -3 11 -11 52 -20 91 -45 208 -103 299 -316 487 -29 26
-159 95 -290 155 -39 18 -218 79 -253 86 -7 2 -19 6 -27 9 -13 5 -53 14 -72
17 -4 1 -22 6 -40 11 -18 6 -42 12 -53 14 -24 6 -44 11 -105 26 -25 6 -52 12
-60 14 -164 35 -342 90 -430 132 -118 57 -189 156 -184 257 6 137 96 225 289
281 66 20 311 30 321 14 3 -5 9 -7 14 -4 14 9 127 -31 195 -70 69 -38 123 -93
155 -156 26 -50 31 -69 37 -131 4 -36 9 -48 21 -49 70 -4 713 -1 718 3 3 3 5
14 6 24 1 28 -11 165 -16 183 -3 9 -7 33 -11 55 -11 77 -94 287 -125 316 -3 3
-20 28 -39 55 -129 187 -405 351 -671 399 -14 2 -43 7 -65 11 -21 5 -53 9 -70
10 -16 2 -30 4 -30 5 0 5 -424 7 -429 3z"/>
<path d="M5106 2568 c1 -629 5 -1154 8 -1168 3 -14 11 -50 16 -81 50 -274 250
-587 469 -736 31 -21 58 -40 61 -43 21 -24 234 -133 324 -166 201 -74 346 -99
571 -98 157 0 237 7 335 30 14 3 32 7 40 9 8 2 41 10 72 20 32 9 61 16 65 17
5 0 24 8 43 18 19 10 37 18 40 17 13 -1 57 17 70 28 8 8 18 14 22 14 25 3 227
118 248 141 3 3 23 18 45 34 67 48 193 185 250 270 69 106 131 231 150 306 1
3 4 12 8 20 7 18 28 96 33 128 2 12 7 34 11 50 4 15 9 546 10 1180 l4 1152
-375 0 c-361 0 -376 -1 -386 -19 -7 -13 -7 -22 0 -26 6 -4 7 -12 1 -23 -5 -9
-6 -25 -1 -36 4 -12 4 -29 1 -40 -4 -10 -4 -41 -1 -68 4 -27 3 -51 -2 -54 -5
-3 -5 -11 1 -18 6 -7 6 -18 1 -26 -4 -7 -5 -23 0 -34 4 -12 4 -30 1 -41 -4
-11 -6 -31 -4 -45 6 -53 5 -148 -1 -158 -3 -6 -2 -13 4 -17 6 -4 7 -13 1 -23
-5 -9 -5 -26 -1 -37 4 -11 4 -29 1 -40 -4 -11 -6 -31 -4 -45 2 -14 3 -38 2
-55 0 -16 0 -39 1 -50 1 -11 1 -27 1 -35 -2 -61 1 -155 4 -159 3 -2 0 -10 -6
-17 -7 -8 -7 -14 1 -19 6 -4 7 -13 1 -23 -5 -9 -5 -26 -1 -37 4 -11 4 -29 1
-40 -4 -11 -6 -31 -4 -45 2 -14 3 -38 2 -55 0 -16 0 -39 1 -50 1 -11 1 -26 1
-32 0 -7 0 -42 0 -78 0 -36 0 -73 -1 -82 0 -98 2 -158 5 -162 3 -2 0 -10 -6
-17 -7 -8 -7 -14 1 -19 6 -4 7 -13 1 -23 -5 -9 -5 -26 -1 -37 4 -11 4 -29 1
-40 -4 -11 -6 -31 -4 -45 2 -14 3 -41 2 -60 0 -19 0 -42 0 -50 1 -8 1 -28 0
-45 0 -16 0 -39 1 -50 3 -48 -5 -149 -13 -162 -3 -5 -9 -25 -12 -44 -14 -77
-77 -189 -155 -272 -88 -94 -245 -178 -364 -194 -70 -9 -239 -9 -276 0 -19 5
-44 10 -55 12 -39 4 -161 58 -215 95 -72 49 -145 123 -178 180 -14 25 -29 47
-32 50 -6 6 -24 52 -52 135 -20 59 -20 83 -22 1165 l-2 1105 -380 3 -380 2 2
-1142z"/>
</g>
</svg>
