<svg xmlns="http://www.w3.org/2000/svg" width="100" height="93.197" viewBox="0 0 100 93.197">
  <g id="Group_3" data-name="Group 3" transform="translate(-883 -1346)">
    <g id="Group_2" data-name="Group 2" transform="translate(883 1346)">
      <path id="Path_8" data-name="Path 8" d="M759.609,113.694,747.727,139.51l-11.852-25.816h-9.5l-6.991,43.027h9.658l4.45-28.371,13.549,28.371h1.369l13.55-28.4,4.449,28.4h9.656l-6.927-43.027Z" transform="translate(-719.385 -113.694)" fill="#1d1d1b"/>
      <path id="Path_9" data-name="Path 9" d="M788.169,216.128a7.18,7.18,0,0,0-1.315-1.947,18.637,18.637,0,0,0-1.6-1.555,10.262,10.262,0,0,0-1.98-1.25q-1.239-.624-2.085-.988a22.2,22.2,0,0,0-2.3-.8q-1.45-.437-2.251-.64l-2.282-.551q-1.754-.408-2.675-.64t-2.191-.682a8.53,8.53,0,0,1-1.9-.887,4.189,4.189,0,0,1-1.1-1.133,2.7,2.7,0,0,1-.469-1.541,3.207,3.207,0,0,1,1.8-2.935,8.621,8.621,0,0,1,4.306-1.017,7.876,7.876,0,0,1,4.7,1.352,4.511,4.511,0,0,1,1.889,3.909h9.279q0-6.279-4.1-9.838t-11.531-3.561q-7.285,0-11.5,3.27a10.968,10.968,0,0,0-4.217,9.2,12.992,12.992,0,0,0,.122,1.8q.725,5.492,6.468,8.138a43.96,43.96,0,0,0,7.858,2.413q1.54.349,2.312.538t1.979.536a9.007,9.007,0,0,1,1.829.7,13.5,13.5,0,0,1,1.3.843,2.86,2.86,0,0,1,.968,1.133,3.435,3.435,0,0,1,.287,1.424,4.077,4.077,0,0,1-2.086,3.574,8.878,8.878,0,0,1-4.9,1.337c-.339,0-.656-.036-.977-.064l4.423,8.183a21.638,21.638,0,0,0,2.977-.607,16.509,16.509,0,0,0,5.2-2.441,11.317,11.317,0,0,0,3.551-4.2,12.886,12.886,0,0,0,1.3-5.871,12.329,12.329,0,0,0-.317-2.848,13.432,13.432,0,0,0-.771-2.355" transform="translate(-732.595 -141.254)" fill="#1d1d1b"/>
      <path id="Path_10" data-name="Path 10" d="M844.934,191.423v25.846a8.126,8.126,0,0,1-8.583,8.605,8.5,8.5,0,0,1-6.216-2.349,8.359,8.359,0,0,1-2.4-6.256V191.423h-9.5V217.68a15.621,15.621,0,0,0,5.146,12.056,20.168,20.168,0,0,0,25.918,0,15.642,15.642,0,0,0,5.132-12.056V191.423Z" transform="translate(-754.434 -141.254)" fill="#1d1d1b"/>
      <path id="Path_11" data-name="Path 11" d="M818.268,113.694v43.027h9.469V128.394l-7.945-14.7Z" transform="translate(-754.444 -113.694)" fill="#1d1d1b"/>
    </g>
  </g>
</svg>
