<svg id="Group_67" data-name="Group 67" xmlns="http://www.w3.org/2000/svg" width="100.193" height="93.376" viewBox="0 0 100.193 93.376">
  <g id="Group_2" data-name="Group 2">
    <path id="Path_8" data-name="Path 8" d="M759.686,113.694l-11.9,25.865-11.874-25.865h-9.518l-7,43.11h9.676l4.458-28.426L747.095,156.8h1.372l13.576-28.455L766.5,156.8h9.675l-6.94-43.11Z" transform="translate(-719.385 -113.694)" fill="#fff"/>
    <path id="Path_9" data-name="Path 9" d="M788.23,216.176a7.194,7.194,0,0,0-1.317-1.95,18.667,18.667,0,0,0-1.605-1.558,10.283,10.283,0,0,0-1.984-1.253q-1.242-.625-2.089-.989a22.23,22.23,0,0,0-2.3-.8q-1.453-.437-2.255-.642l-2.286-.552q-1.758-.408-2.68-.642t-2.2-.683a8.544,8.544,0,0,1-1.908-.889,4.2,4.2,0,0,1-1.106-1.135,2.71,2.71,0,0,1-.469-1.544,3.213,3.213,0,0,1,1.8-2.941,8.638,8.638,0,0,1,4.315-1.019,7.891,7.891,0,0,1,4.71,1.354,4.52,4.52,0,0,1,1.893,3.917h9.3q0-6.291-4.1-9.857t-11.553-3.568q-7.3,0-11.523,3.276a10.989,10.989,0,0,0-4.225,9.217,13.022,13.022,0,0,0,.122,1.8q.727,5.5,6.48,8.153a44.047,44.047,0,0,0,7.873,2.417q1.543.349,2.316.539t1.983.537a9.023,9.023,0,0,1,1.832.7,13.526,13.526,0,0,1,1.3.845,2.866,2.866,0,0,1,.969,1.136,3.441,3.441,0,0,1,.288,1.427,4.085,4.085,0,0,1-2.09,3.581,8.9,8.9,0,0,1-4.906,1.34c-.339,0-.657-.036-.979-.064l4.432,8.2a21.679,21.679,0,0,0,2.983-.608,16.541,16.541,0,0,0,5.209-2.446,11.339,11.339,0,0,0,3.557-4.207,12.91,12.91,0,0,0,1.3-5.882,12.351,12.351,0,0,0-.318-2.853,13.457,13.457,0,0,0-.772-2.359" transform="translate(-732.549 -141.158)" fill="#fff"/>
    <path id="Path_10" data-name="Path 10" d="M844.986,191.423v25.9a8.141,8.141,0,0,1-8.6,8.622,8.52,8.52,0,0,1-6.228-2.353,8.375,8.375,0,0,1-2.4-6.268v-25.9h-9.517V217.73a15.651,15.651,0,0,0,5.156,12.079,20.207,20.207,0,0,0,25.968,0A15.672,15.672,0,0,0,854.5,217.73V191.423Z" transform="translate(-754.311 -141.157)" fill="#fff"/>
    <path id="Path_11" data-name="Path 11" d="M818.268,113.694V156.8h9.488V128.422l-7.961-14.728Z" transform="translate(-754.321 -113.694)" fill="#fff"/>
  </g>
</svg>
